<?xml version="1.0" encoding="UTF-8"?>
<!DOCTYPE svg PUBLIC "-//W3C//DTD SVG 1.1//EN" "http://www.w3.org/Graphics/SVG/1.1/DTD/svg11.dtd">
<svg xmlns="http://www.w3.org/2000/svg" version="1.1" width="128px" height="128px" style="shape-rendering:geometricPrecision; text-rendering:geometricPrecision; image-rendering:optimizeQuality; fill-rule:evenodd; clip-rule:evenodd" xmlns:xlink="http://www.w3.org/1999/xlink">
<g><path style="opacity:1" fill="#cad0e3" d="M -0.5,-0.5 C 31.1667,-0.5 62.8333,-0.5 94.5,-0.5C 94.9349,1.29671 94.9349,3.29671 94.5,5.5C 95.8333,5.5 97.1667,5.5 98.5,5.5C 98.5,4.16667 98.5,2.83333 98.5,1.5C 99.8333,1.5 101.167,1.5 102.5,1.5C 103.299,4.87189 104.633,8.03856 106.5,11C 106.333,11.5 106.167,12 106,12.5C 104.708,11.2089 103.542,11.2089 102.5,12.5C 97.6937,11.4386 93.0271,9.9386 88.5,8C 83.1667,7.33333 77.8333,7.33333 72.5,8C 71.2625,8.23209 70.2625,8.73209 69.5,9.5C 67.1898,10.325 65.1898,11.6583 63.5,13.5C 61.302,13.1201 59.6354,13.7868 58.5,15.5C 57.8333,16.1667 57.1667,16.8333 56.5,17.5C 51.9568,19.3717 48.2901,22.3717 45.5,26.5C 41.8726,28.7935 38.5393,31.4602 35.5,34.5C 33.1667,35.8333 30.8333,37.1667 28.5,38.5C 27.1302,40.2504 26.1302,42.2504 25.5,44.5C 24.0283,46.1343 22.3617,47.6343 20.5,49C 18.2922,49.1909 16.2922,49.6909 14.5,50.5C 12.901,50.2322 11.5676,50.5655 10.5,51.5C 4.85039,52.48 2.18372,55.8134 2.5,61.5C 6.26928,61.244 9.93595,61.5773 13.5,62.5C 14.8333,63.5 16.1667,64.5 17.5,65.5C 18.1667,65.5 18.5,65.8333 18.5,66.5C 21.2758,69.5498 24.6092,71.8832 28.5,73.5C 28.8333,74.1667 29.1667,74.8333 29.5,75.5C 29.5,76.1667 29.5,76.8333 29.5,77.5C 29.5646,80.4715 28.7313,83.1382 27,85.5C 26.3333,84.8333 25.6667,84.1667 25,83.5C 23.2932,84.9436 21.4599,86.277 19.5,87.5C 18.5713,86.3112 18.238,84.9778 18.5,83.5C 13.7863,83.1734 9.11965,83.5067 4.5,84.5C 3.2723,86.321 1.60563,87.321 -0.5,87.5C -0.5,58.1667 -0.5,28.8333 -0.5,-0.5 Z"/></g>
<g><path style="opacity:1" fill="#cbd2de" d="M 94.5,-0.5 C 105.5,-0.5 116.5,-0.5 127.5,-0.5C 127.5,9.83333 127.5,20.1667 127.5,30.5C 126.549,29.0813 126.216,27.4147 126.5,25.5C 121.772,23.3525 117.106,21.0191 112.5,18.5C 109.134,16.4867 105.801,14.4867 102.5,12.5C 103.542,11.2089 104.708,11.2089 106,12.5C 106.167,12 106.333,11.5 106.5,11C 104.633,8.03856 103.299,4.87189 102.5,1.5C 101.167,1.5 99.8333,1.5 98.5,1.5C 98.5,2.83333 98.5,4.16667 98.5,5.5C 97.1667,5.5 95.8333,5.5 94.5,5.5C 94.9349,3.29671 94.9349,1.29671 94.5,-0.5 Z"/></g>
<g><path style="opacity:1" fill="#1c1f26" d="M 104.5,16.5 C 102.409,16.3184 100.409,16.6518 98.5,17.5C 97.7132,16.7579 97.0465,15.9246 96.5,15C 90.3693,12.793 84.036,11.293 77.5,10.5C 72.7189,11.133 68.0522,12.133 63.5,13.5C 65.1898,11.6583 67.1898,10.325 69.5,9.5C 75.1454,8.61289 80.812,8.44622 86.5,9C 92.7305,11.2088 98.7305,13.7088 104.5,16.5 Z"/></g>
<g><path style="opacity:1" fill="#070805" d="M 104.5,16.5 C 103.597,19.3915 103.264,22.3915 103.5,25.5C 105.869,25.1489 108.203,24.9822 110.5,25C 107.879,25.9385 105.212,26.7719 102.5,27.5C 105.422,27.8988 108.422,28.0655 111.5,28C 115.184,29.3548 117.184,32.0214 117.5,36C 117.012,37.584 116.012,38.7506 114.5,39.5C 114.833,39.8333 115.167,40.1667 115.5,40.5C 117.51,38.8287 119.843,38.162 122.5,38.5C 122.5,37.5 122.5,36.5 122.5,35.5C 123.5,35.5 124.5,35.5 125.5,35.5C 125.334,38.1684 124.334,40.5017 122.5,42.5C 124.805,44.9809 124.805,47.3142 122.5,49.5C 123.325,50.3857 124.325,50.719 125.5,50.5C 125.59,52.6963 125.923,54.863 126.5,57C 125.22,59.3597 124.553,61.8597 124.5,64.5C 123.833,64.5 123.167,64.5 122.5,64.5C 121.325,64.281 120.325,64.6143 119.5,65.5C 118.906,68.8304 118.24,72.1637 117.5,75.5C 114.804,76.8509 112.47,78.6843 110.5,81C 110.957,81.414 111.291,81.914 111.5,82.5C 109.803,83.3636 108.637,84.6969 108,86.5C 105.62,89.2749 102.787,89.9416 99.5,88.5C 99.9377,87.4937 100.604,87.4937 101.5,88.5C 102.386,87.675 102.719,86.675 102.5,85.5C 106.001,85.649 106.334,84.649 103.5,82.5C 102.686,77.8809 102.353,73.2142 102.5,68.5C 104.091,65.4994 105.424,62.3327 106.5,59C 107.307,55.6469 107.307,52.4802 106.5,49.5C 106.573,47.9731 105.906,46.9731 104.5,46.5C 102.746,42.4118 99.7461,39.7451 95.5,38.5C 95.1667,38.5 94.8333,38.5 94.5,38.5C 94.0472,37.5416 93.3805,36.7083 92.5,36C 86.118,32.2322 79.4513,30.7322 72.5,31.5C 67.8215,31.3342 63.1548,31.5008 58.5,32C 56.6763,32.66 55.343,33.8267 54.5,35.5C 52.9731,35.427 51.9731,36.0937 51.5,37.5C 49.9731,37.427 48.9731,38.0937 48.5,39.5C 47.087,42.2186 46.4203,45.2186 46.5,48.5C 45.2794,49.0283 44.1127,49.695 43,50.5C 40.4945,46.9269 36.9945,44.9269 32.5,44.5C 32.753,40.8676 33.753,37.5343 35.5,34.5C 38.5393,31.4602 41.8726,28.7935 45.5,26.5C 49.4627,23.8715 53.1294,20.8715 56.5,17.5C 57.1667,16.8333 57.8333,16.1667 58.5,15.5C 60.698,15.8799 62.3646,15.2132 63.5,13.5C 68.0522,12.133 72.7189,11.133 77.5,10.5C 84.036,11.293 90.3693,12.793 96.5,15C 97.0465,15.9246 97.7132,16.7579 98.5,17.5C 100.409,16.6518 102.409,16.3184 104.5,16.5 Z"/></g>
<g><path style="opacity:1" fill="#3a3e46" d="M 63.5,13.5 C 62.3646,15.2132 60.698,15.8799 58.5,15.5C 59.6354,13.7868 61.302,13.1201 63.5,13.5 Z"/></g>
<g><path style="opacity:1" fill="#8e93a1" d="M 102.5,12.5 C 105.801,14.4867 109.134,16.4867 112.5,18.5C 109.673,18.4162 107.006,17.7496 104.5,16.5C 98.7305,13.7088 92.7305,11.2088 86.5,9C 80.812,8.44622 75.1454,8.61289 69.5,9.5C 70.2625,8.73209 71.2625,8.23209 72.5,8C 77.8333,7.33333 83.1667,7.33333 88.5,8C 93.0271,9.9386 97.6937,11.4386 102.5,12.5 Z"/></g>
<g><path style="opacity:1" fill="#9ea3af" d="M 112.5,18.5 C 117.106,21.0191 121.772,23.3525 126.5,25.5C 126.216,27.4147 126.549,29.0813 127.5,30.5C 127.5,31.1667 127.5,31.8333 127.5,32.5C 125.896,31.713 125.229,30.3797 125.5,28.5C 120.752,25.8809 116.418,22.5476 112.5,18.5 Z"/></g>
<g><path style="opacity:1" fill="#444953" d="M 56.5,17.5 C 53.1294,20.8715 49.4627,23.8715 45.5,26.5C 48.2901,22.3717 51.9568,19.3717 56.5,17.5 Z"/></g>
<g><path style="opacity:1" fill="#222423" d="M 104.5,16.5 C 107.006,17.7496 109.673,18.4162 112.5,18.5C 116.418,22.5476 120.752,25.8809 125.5,28.5C 125.229,30.3797 125.896,31.713 127.5,32.5C 127.5,43.1667 127.5,53.8333 127.5,64.5C 126.5,64.5 125.5,64.5 124.5,64.5C 124.553,61.8597 125.22,59.3597 126.5,57C 125.923,54.863 125.59,52.6963 125.5,50.5C 124.325,50.719 123.325,50.3857 122.5,49.5C 124.805,47.3142 124.805,44.9809 122.5,42.5C 124.334,40.5017 125.334,38.1684 125.5,35.5C 124.5,35.5 123.5,35.5 122.5,35.5C 122.5,36.5 122.5,37.5 122.5,38.5C 119.843,38.162 117.51,38.8287 115.5,40.5C 115.167,40.1667 114.833,39.8333 114.5,39.5C 116.012,38.7506 117.012,37.584 117.5,36C 117.184,32.0214 115.184,29.3548 111.5,28C 108.422,28.0655 105.422,27.8988 102.5,27.5C 105.212,26.7719 107.879,25.9385 110.5,25C 108.203,24.9822 105.869,25.1489 103.5,25.5C 103.264,22.3915 103.597,19.3915 104.5,16.5 Z"/></g>
<g><path style="opacity:1" fill="#303022" d="M 72.5,31.5 C 79.4513,30.7322 86.118,32.2322 92.5,36C 93.3805,36.7083 94.0472,37.5416 94.5,38.5C 92.4418,37.0669 90.1085,36.4003 87.5,36.5C 87.1583,35.6618 86.4916,35.3284 85.5,35.5C 85.3893,34.8826 85.056,34.3826 84.5,34C 81.4133,33.7411 78.4133,33.2411 75.5,32.5C 74.791,31.596 73.791,31.2627 72.5,31.5 Z"/></g>
<g><path style="opacity:1" fill="#646357" d="M 72.5,31.5 C 73.791,31.2627 74.791,31.596 75.5,32.5C 71.2984,32.1832 67.2984,32.5166 63.5,33.5C 60.2153,33.2104 57.2153,33.877 54.5,35.5C 55.343,33.8267 56.6763,32.66 58.5,32C 63.1548,31.5008 67.8215,31.3342 72.5,31.5 Z"/></g>
<g><path style="opacity:1" fill="#acac98" d="M 63.5,33.5 C 67.2984,32.5166 71.2984,32.1832 75.5,32.5C 78.4133,33.2411 81.4133,33.7411 84.5,34C 85.056,34.3826 85.3893,34.8826 85.5,35.5C 78.2466,34.176 70.9133,33.5093 63.5,33.5 Z"/></g>
<g><path style="opacity:1" fill="#80816d" d="M 54.5,35.5 C 54.5,35.8333 54.5,36.1667 54.5,36.5C 53.609,37.1098 52.609,37.4431 51.5,37.5C 51.9731,36.0937 52.9731,35.427 54.5,35.5 Z"/></g>
<g><path style="opacity:1" fill="#acae95" d="M 87.5,36.5 C 90.1085,36.4003 92.4418,37.0669 94.5,38.5C 94.8333,38.5 95.1667,38.5 95.5,38.5C 96.5,39.8333 97.5,41.1667 98.5,42.5C 98.1667,42.5 97.8333,42.5 97.5,42.5C 93.8822,40.8627 90.5488,38.8627 87.5,36.5 Z"/></g>
<g><path style="opacity:1" fill="#484835" d="M 95.5,38.5 C 99.7461,39.7451 102.746,42.4118 104.5,46.5C 102.223,45.5514 100.223,44.2181 98.5,42.5C 97.5,41.1667 96.5,39.8333 95.5,38.5 Z"/></g>
<g><path style="opacity:1" fill="#f3f1de" d="M 63.5,33.5 C 70.9133,33.5093 78.2466,34.176 85.5,35.5C 86.4916,35.3284 87.1583,35.6618 87.5,36.5C 90.5488,38.8627 93.8822,40.8627 97.5,42.5C 97.8333,44.5 98.1667,46.5 98.5,48.5C 100.429,48.2308 102.095,48.7308 103.5,50C 102.917,55.6617 101.251,60.995 98.5,66C 98.9574,66.414 99.2907,66.914 99.5,67.5C 98.2371,69.0287 97.2371,70.6954 96.5,72.5C 95.7515,71.469 95.0848,70.3024 94.5,69C 94.8333,68.6667 95.1667,68.3333 95.5,68C 94.552,67.5172 93.552,67.3505 92.5,67.5C 92.33,66.1779 92.6634,65.0113 93.5,64C 91.8659,63.5065 90.1992,63.3398 88.5,63.5C 88.5,64.8333 88.5,66.1667 88.5,67.5C 84.165,68.0002 80.165,67.1668 76.5,65C 78.0074,64.1627 78.5074,62.9961 78,61.5C 76.8904,63.0368 75.3904,63.7035 73.5,63.5C 76.0214,61.299 78.5214,58.9657 81,56.5C 81.8446,53.8697 81.3446,51.5364 79.5,49.5C 82.028,48.1841 82.028,47.0174 79.5,46C 80.1667,45.6667 80.8333,45.3333 81.5,45C 75.8145,43.5034 70.1479,42.67 64.5,42.5C 61.68,44.6257 58.68,45.2924 55.5,44.5C 49.7903,48.6324 48.2903,47.2991 51,40.5C 51.8928,41.7112 52.7261,41.7112 53.5,40.5C 54.2458,39.2638 54.5792,37.9305 54.5,36.5C 54.5,36.1667 54.5,35.8333 54.5,35.5C 57.2153,33.877 60.2153,33.2104 63.5,33.5 Z"/></g>
<g><path style="opacity:1" fill="#e9e6d1" d="M 54.5,36.5 C 54.5792,37.9305 54.2458,39.2638 53.5,40.5C 52.7261,41.7112 51.8928,41.7112 51,40.5C 48.2903,47.2991 49.7903,48.6324 55.5,44.5C 58.68,45.2924 61.68,44.6257 64.5,42.5C 70.1479,42.67 75.8145,43.5034 81.5,45C 80.8333,45.3333 80.1667,45.6667 79.5,46C 82.028,47.0174 82.028,48.1841 79.5,49.5C 81.3446,51.5364 81.8446,53.8697 81,56.5C 78.5214,58.9657 76.0214,61.299 73.5,63.5C 69.6095,63.7275 65.7762,63.3942 62,62.5C 59.6101,63.2779 57.4434,64.4445 55.5,66C 57.0016,66.5831 58.3349,67.4164 59.5,68.5C 56.6336,69.208 53.8003,69.8747 51,70.5C 50.4054,71.8989 50.5721,73.2322 51.5,74.5C 49.3024,76.8221 49.6357,78.9888 52.5,81C 50.9632,82.1096 50.2965,83.6096 50.5,85.5C 47.8127,85.3359 45.146,85.5026 42.5,86C 42.9662,87.2988 42.9662,88.7988 42.5,90.5C 40.0185,91.2583 37.3519,91.2583 34.5,90.5C 35.0317,86.6404 34.8651,82.6404 34,78.5C 33.0053,77.9341 32.172,77.2674 31.5,76.5C 34.2282,76.8294 36.5615,76.1628 38.5,74.5C 40.9521,73.9346 43.2854,73.2679 45.5,72.5C 47.5323,71.9522 48.5323,70.6188 48.5,68.5C 50.1667,68.5 51.8333,68.5 53.5,68.5C 53.5,67.5 53.5,66.5 53.5,65.5C 52.266,61.1808 50.5993,57.0141 48.5,53C 49.1667,52.6667 49.8333,52.3333 50.5,52C 48.968,51.3005 47.968,50.1338 47.5,48.5C 48.4066,45.5788 48.7399,42.5788 48.5,39.5C 48.9731,38.0937 49.9731,37.427 51.5,37.5C 52.609,37.4431 53.609,37.1098 54.5,36.5 Z"/></g>
<g><path style="opacity:1" fill="#757878" d="M 28.5,38.5 C 28.7135,40.1439 28.3802,41.6439 27.5,43C 29.1412,44.129 30.1412,45.629 30.5,47.5C 29.8333,47.8333 29.1667,48.1667 28.5,48.5C 27.5,47.1667 26.5,45.8333 25.5,44.5C 26.1302,42.2504 27.1302,40.2504 28.5,38.5 Z"/></g>
<g><path style="opacity:1" fill="#595e63" d="M 25.5,44.5 C 24.8333,46.8333 24.1667,49.1667 23.5,51.5C 25.1307,53.6433 27.1307,55.31 29.5,56.5C 29.44,57.0431 29.1067,57.3764 28.5,57.5C 24.196,56.948 20.8626,54.948 18.5,51.5C 17.3112,50.5713 15.9778,50.238 14.5,50.5C 16.2922,49.6909 18.2922,49.1909 20.5,49C 22.3617,47.6343 24.0283,46.1343 25.5,44.5 Z"/></g>
<g><path style="opacity:1" fill="#343739" d="M 25.5,44.5 C 26.5,45.8333 27.5,47.1667 28.5,48.5C 27.3129,49.5336 26.4796,50.867 26,52.5C 25.3292,51.7476 24.4959,51.4142 23.5,51.5C 24.1667,49.1667 24.8333,46.8333 25.5,44.5 Z"/></g>
<g><path style="opacity:1" fill="#878573" d="M 104.5,46.5 C 105.906,46.9731 106.573,47.9731 106.5,49.5C 106.768,51.099 106.434,52.4324 105.5,53.5C 105.552,51.0971 105.219,48.7638 104.5,46.5 Z"/></g>
<g><path style="opacity:1" fill="#302f2b" d="M 35.5,34.5 C 33.753,37.5343 32.753,40.8676 32.5,44.5C 36.9945,44.9269 40.4945,46.9269 43,50.5C 44.1127,49.695 45.2794,49.0283 46.5,48.5C 46.5,49.1667 46.5,49.8333 46.5,50.5C 45.5318,52.6074 45.1984,54.9407 45.5,57.5C 43.8199,54.8257 41.4865,52.8257 38.5,51.5C 39.4153,48.9206 38.582,48.2539 36,49.5C 35.0546,49.0946 34.3879,48.428 34,47.5C 33.6667,48.1667 33.3333,48.8333 33,49.5C 32.5831,48.244 31.7498,47.5774 30.5,47.5C 30.1412,45.629 29.1412,44.129 27.5,43C 28.3802,41.6439 28.7135,40.1439 28.5,38.5C 30.8333,37.1667 33.1667,35.8333 35.5,34.5 Z"/></g>
<g><path style="opacity:1" fill="#0b0c07" d="M 30.5,47.5 C 31.7498,47.5774 32.5831,48.244 33,49.5C 33.3333,48.8333 33.6667,48.1667 34,47.5C 34.3879,48.428 35.0546,49.0946 36,49.5C 38.582,48.2539 39.4153,48.9206 38.5,51.5C 41.4865,52.8257 43.8199,54.8257 45.5,57.5C 45.5,58.8333 45.5,60.1667 45.5,61.5C 43.8333,61.5 42.1667,61.5 40.5,61.5C 38.0733,61.477 35.74,60.977 33.5,60C 33.1838,58.313 31.8504,57.1464 29.5,56.5C 27.1307,55.31 25.1307,53.6433 23.5,51.5C 24.4959,51.4142 25.3292,51.7476 26,52.5C 26.4796,50.867 27.3129,49.5336 28.5,48.5C 29.1667,48.1667 29.8333,47.8333 30.5,47.5 Z"/></g>
<g><path style="opacity:1" fill="#cecbb6" d="M 48.5,39.5 C 48.7399,42.5788 48.4066,45.5788 47.5,48.5C 47.968,50.1338 48.968,51.3005 50.5,52C 49.8333,52.3333 49.1667,52.6667 48.5,53C 50.5993,57.0141 52.266,61.1808 53.5,65.5C 52.391,65.4431 51.391,65.1098 50.5,64.5C 49.9573,61.9616 48.9573,59.6282 47.5,57.5C 46.6314,55.283 46.298,52.9496 46.5,50.5C 46.5,49.8333 46.5,49.1667 46.5,48.5C 46.4203,45.2186 47.087,42.2186 48.5,39.5 Z"/></g>
<g><path style="opacity:1" fill="#1c1619" d="M 66.5,49.5 C 69.3854,49.1936 72.0521,49.5269 74.5,50.5C 74.4226,51.7498 73.756,52.5831 72.5,53C 73.3366,54.0113 73.67,55.1779 73.5,56.5C 71.8008,56.6602 70.1341,56.4935 68.5,56C 67.7699,53.846 67.1032,51.6794 66.5,49.5 Z"/></g>
<g><path style="opacity:1" fill="#757364" d="M 46.5,50.5 C 46.298,52.9496 46.6314,55.283 47.5,57.5C 46.8333,57.5 46.1667,57.5 45.5,57.5C 45.1984,54.9407 45.5318,52.6074 46.5,50.5 Z"/></g>
<g><path style="opacity:1" fill="#3b3f40" d="M 14.5,50.5 C 15.9778,50.238 17.3112,50.5713 18.5,51.5C 20.8626,54.948 24.196,56.948 28.5,57.5C 29.1067,57.3764 29.44,57.0431 29.5,56.5C 31.8504,57.1464 33.1838,58.313 33.5,60C 35.74,60.977 38.0733,61.477 40.5,61.5C 40.0296,62.6935 39.0296,63.3601 37.5,63.5C 35.1678,62.8275 32.8344,62.6608 30.5,63C 30.9574,63.414 31.2907,63.914 31.5,64.5C 30.5,64.8333 29.5,65.1667 28.5,65.5C 24.8683,64.7543 21.2017,64.421 17.5,64.5C 18.6085,63.71 19.9419,63.21 21.5,63C 19.5,62.1667 17.5,61.3333 15.5,60.5C 19.8157,59.3801 20.4824,57.2134 17.5,54C 15.4233,53.8078 13.4233,53.3078 11.5,52.5C 12.6016,51.8243 13.6016,51.1577 14.5,50.5 Z"/></g>
<g><path style="opacity:1" fill="#3f3936" d="M 66.5,49.5 C 67.1032,51.6794 67.7699,53.846 68.5,56C 70.1341,56.4935 71.8008,56.6602 73.5,56.5C 73.67,55.1779 73.3366,54.0113 72.5,53C 73.756,52.5831 74.4226,51.7498 74.5,50.5C 76.4459,51.2544 77.2793,52.5878 77,54.5C 70.6824,61.2403 64.5158,61.0736 58.5,54C 60.7798,51.6963 63.4464,50.1963 66.5,49.5 Z"/></g>
<g><path style="opacity:1" fill="#5b5b4c" d="M 106.5,49.5 C 107.307,52.4802 107.307,55.6469 106.5,59C 105.424,62.3327 104.091,65.4994 102.5,68.5C 102.5,66.5 102.5,64.5 102.5,62.5C 104.11,59.7967 105.11,56.7967 105.5,53.5C 106.434,52.4324 106.768,51.099 106.5,49.5 Z"/></g>
<g><path style="opacity:1" fill="#b4b2a7" d="M 10.5,51.5 C 10.5,52.5 10.5,53.5 10.5,54.5C 11.5,54.5 12.5,54.5 13.5,54.5C 13.5,57.1667 13.5,59.8333 13.5,62.5C 9.93595,61.5773 6.26928,61.244 2.5,61.5C 2.18372,55.8134 4.85039,52.48 10.5,51.5 Z"/></g>
<g><path style="opacity:1" fill="#5c615d" d="M 14.5,50.5 C 13.6016,51.1577 12.6016,51.8243 11.5,52.5C 13.4233,53.3078 15.4233,53.8078 17.5,54C 20.4824,57.2134 19.8157,59.3801 15.5,60.5C 17.5,61.3333 19.5,62.1667 21.5,63C 19.9419,63.21 18.6085,63.71 17.5,64.5C 17.5,64.8333 17.5,65.1667 17.5,65.5C 16.1667,64.5 14.8333,63.5 13.5,62.5C 13.5,59.8333 13.5,57.1667 13.5,54.5C 12.5,54.5 11.5,54.5 10.5,54.5C 10.5,53.5 10.5,52.5 10.5,51.5C 11.5676,50.5655 12.901,50.2322 14.5,50.5 Z"/></g>
<g><path style="opacity:1" fill="#1c1d17" d="M 45.5,57.5 C 46.1667,57.5 46.8333,57.5 47.5,57.5C 48.9573,59.6282 49.9573,61.9616 50.5,64.5C 50.8808,66.9418 50.2141,67.6085 48.5,66.5C 47.6143,67.325 47.281,68.325 47.5,69.5C 44.8004,70.516 42.1337,70.516 39.5,69.5C 38.2613,69.9424 37.2613,70.6091 36.5,71.5C 35.4168,71.5394 34.4168,71.8728 33.5,72.5C 30.04,69.8977 26.3733,67.7311 22.5,66C 21.0715,65.4209 19.7382,65.5876 18.5,66.5C 18.5,65.8333 18.1667,65.5 17.5,65.5C 17.5,65.1667 17.5,64.8333 17.5,64.5C 21.2017,64.421 24.8683,64.7543 28.5,65.5C 29.5,65.1667 30.5,64.8333 31.5,64.5C 31.2907,63.914 30.9574,63.414 30.5,63C 32.8344,62.6608 35.1678,62.8275 37.5,63.5C 39.0296,63.3601 40.0296,62.6935 40.5,61.5C 42.1667,61.5 43.8333,61.5 45.5,61.5C 45.5,60.1667 45.5,58.8333 45.5,57.5 Z"/></g>
<g><path style="opacity:1" fill="#444231" d="M 50.5,64.5 C 51.391,65.1098 52.391,65.4431 53.5,65.5C 53.5,66.5 53.5,67.5 53.5,68.5C 51.8333,68.5 50.1667,68.5 48.5,68.5C 48.5323,70.6188 47.5323,71.9522 45.5,72.5C 42.4299,72.6323 39.4299,72.299 36.5,71.5C 37.2613,70.6091 38.2613,69.9424 39.5,69.5C 42.1337,70.516 44.8004,70.516 47.5,69.5C 47.281,68.325 47.6143,67.325 48.5,66.5C 50.2141,67.6085 50.8808,66.9418 50.5,64.5 Z"/></g>
<g><path style="opacity:1" fill="#5a5d51" d="M 36.5,71.5 C 39.4299,72.299 42.4299,72.6323 45.5,72.5C 43.2854,73.2679 40.9521,73.9346 38.5,74.5C 35.0977,74.6576 31.7644,74.3242 28.5,73.5C 24.6092,71.8832 21.2758,69.5498 18.5,66.5C 19.7382,65.5876 21.0715,65.4209 22.5,66C 26.3733,67.7311 30.04,69.8977 33.5,72.5C 34.4168,71.8728 35.4168,71.5394 36.5,71.5 Z"/></g>
<g><path style="opacity:1" fill="#383527" d="M 102.5,68.5 C 102.353,73.2142 102.686,77.8809 103.5,82.5C 102.883,82.3893 102.383,82.056 102,81.5C 101.186,76.9796 101.353,72.6463 102.5,68.5 Z"/></g>
<g><path style="opacity:1" fill="#21211b" d="M 122.5,64.5 C 123.914,66.5983 123.248,67.5983 120.5,67.5C 120.424,69.9229 121.424,71.7562 123.5,73C 121.906,75.3068 122.572,76.6402 125.5,77C 124.594,78.6995 124.261,80.5328 124.5,82.5C 122.801,82.6602 121.134,82.4935 119.5,82C 123.331,78.8384 122.997,77.3384 118.5,77.5C 118.753,79.8273 118.086,81.8273 116.5,83.5C 115.193,81.1933 113.86,81.36 112.5,84C 113.272,85.221 114.272,86.221 115.5,87C 111.882,87.1288 110.215,88.9621 110.5,92.5C 109.448,92.3505 108.448,92.5172 107.5,93C 108.737,93.2321 109.737,93.7321 110.5,94.5C 109.167,94.5 108.5,95.1667 108.5,96.5C 107.167,96.5 105.833,96.5 104.5,96.5C 104.5,94.8333 104.5,93.1667 104.5,91.5C 101.966,91.2591 100.3,92.2591 99.5,94.5C 96.9952,95.4171 94.6618,95.4171 92.5,94.5C 92.5,93.5 92.5,92.5 92.5,91.5C 94.099,91.7678 95.4324,91.4345 96.5,90.5C 96.5482,87.3648 98.2148,85.6981 101.5,85.5C 102.612,84.7348 103.279,83.7348 103.5,82.5C 106.334,84.649 106.001,85.649 102.5,85.5C 102.719,86.675 102.386,87.675 101.5,88.5C 100.604,87.4937 99.9377,87.4937 99.5,88.5C 102.787,89.9416 105.62,89.2749 108,86.5C 108.637,84.6969 109.803,83.3636 111.5,82.5C 111.291,81.914 110.957,81.414 110.5,81C 112.47,78.6843 114.804,76.8509 117.5,75.5C 118.24,72.1637 118.906,68.8304 119.5,65.5C 120.325,64.6143 121.325,64.281 122.5,64.5 Z"/></g>
<g><path style="opacity:1" fill="#828773" d="M 28.5,73.5 C 31.7644,74.3242 35.0977,74.6576 38.5,74.5C 36.5615,76.1628 34.2282,76.8294 31.5,76.5C 31.1583,75.6618 30.4916,75.3284 29.5,75.5C 29.1667,74.8333 28.8333,74.1667 28.5,73.5 Z"/></g>
<g><path style="opacity:1" fill="#f5f3d7" d="M 96.5,72.5 C 95.9196,76.1419 95.4196,79.8086 95,83.5C 94.5,84.6667 93.6667,85.5 92.5,86C 93.1667,86.3333 93.8333,86.6667 94.5,87C 89.8291,87.5375 85.1624,88.0375 80.5,88.5C 73.8333,88.5 67.1667,88.5 60.5,88.5C 54.4213,88.8699 48.4213,89.5365 42.5,90.5C 42.9662,88.7988 42.9662,87.2988 42.5,86C 45.146,85.5026 47.8127,85.3359 50.5,85.5C 50.2965,83.6096 50.9632,82.1096 52.5,81C 49.6357,78.9888 49.3024,76.8221 51.5,74.5C 50.5721,73.2322 50.4054,71.8989 51,70.5C 53.8003,69.8747 56.6336,69.208 59.5,68.5C 58.3349,67.4164 57.0016,66.5831 55.5,66C 57.4434,64.4445 59.6101,63.2779 62,62.5C 65.7762,63.3942 69.6095,63.7275 73.5,63.5C 75.3904,63.7035 76.8904,63.0368 78,61.5C 78.5074,62.9961 78.0074,64.1627 76.5,65C 80.165,67.1668 84.165,68.0002 88.5,67.5C 88.5,66.1667 88.5,64.8333 88.5,63.5C 90.1992,63.3398 91.8659,63.5065 93.5,64C 92.6634,65.0113 92.33,66.1779 92.5,67.5C 93.552,67.3505 94.552,67.5172 95.5,68C 95.1667,68.3333 94.8333,68.6667 94.5,69C 95.0848,70.3024 95.7515,71.469 96.5,72.5 Z"/></g>
<g><path style="opacity:1" fill="#d9d9c2" d="M 97.5,42.5 C 97.8333,42.5 98.1667,42.5 98.5,42.5C 100.223,44.2181 102.223,45.5514 104.5,46.5C 105.219,48.7638 105.552,51.0971 105.5,53.5C 105.11,56.7967 104.11,59.7967 102.5,62.5C 100.856,69.1186 99.8559,76.1186 99.5,83.5C 96.9514,84.7504 95.618,86.7504 95.5,89.5C 93.901,89.2322 92.5676,89.5655 91.5,90.5C 87.8455,90.0578 84.1788,89.7244 80.5,89.5C 80.5,89.1667 80.5,88.8333 80.5,88.5C 85.1624,88.0375 89.8291,87.5375 94.5,87C 93.8333,86.6667 93.1667,86.3333 92.5,86C 93.6667,85.5 94.5,84.6667 95,83.5C 95.4196,79.8086 95.9196,76.1419 96.5,72.5C 97.2371,70.6954 98.2371,69.0287 99.5,67.5C 99.2907,66.914 98.9574,66.414 98.5,66C 101.251,60.995 102.917,55.6617 103.5,50C 102.095,48.7308 100.429,48.2308 98.5,48.5C 98.1667,46.5 97.8333,44.5 97.5,42.5 Z"/></g>
<g><path style="opacity:1" fill="#d3d8e3" d="M 29.5,77.5 C 31.9003,87.0763 30.4003,96.0763 25,104.5C 24.2448,112.358 22.7448,120.024 20.5,127.5C 13.5,127.5 6.5,127.5 -0.5,127.5C -0.5,114.167 -0.5,100.833 -0.5,87.5C 1.60563,87.321 3.2723,86.321 4.5,84.5C 9.11965,83.5067 13.7863,83.1734 18.5,83.5C 18.238,84.9778 18.5713,86.3112 19.5,87.5C 21.4599,86.277 23.2932,84.9436 25,83.5C 25.6667,84.1667 26.3333,84.8333 27,85.5C 28.7313,83.1382 29.5646,80.4715 29.5,77.5 Z"/></g>
<g><path style="opacity:1" fill="#898776" d="M 102.5,62.5 C 102.5,64.5 102.5,66.5 102.5,68.5C 101.353,72.6463 101.186,76.9796 102,81.5C 102.383,82.056 102.883,82.3893 103.5,82.5C 103.279,83.7348 102.612,84.7348 101.5,85.5C 98.2148,85.6981 96.5482,87.3648 96.5,90.5C 94.8333,90.5 93.1667,90.5 91.5,90.5C 92.5676,89.5655 93.901,89.2322 95.5,89.5C 95.618,86.7504 96.9514,84.7504 99.5,83.5C 99.8559,76.1186 100.856,69.1186 102.5,62.5 Z"/></g>
<g><path style="opacity:1" fill="#30312b" d="M 122.5,64.5 C 123.167,64.5 123.833,64.5 124.5,64.5C 125.5,64.5 126.5,64.5 127.5,64.5C 127.5,70.8333 127.5,77.1667 127.5,83.5C 123.925,84.3875 121.925,86.7209 121.5,90.5C 119.568,89.4798 117.568,89.3131 115.5,90C 113.638,91.3657 111.972,92.8657 110.5,94.5C 109.737,93.7321 108.737,93.2321 107.5,93C 108.448,92.5172 109.448,92.3505 110.5,92.5C 110.215,88.9621 111.882,87.1288 115.5,87C 114.272,86.221 113.272,85.221 112.5,84C 113.86,81.36 115.193,81.1933 116.5,83.5C 118.086,81.8273 118.753,79.8273 118.5,77.5C 122.997,77.3384 123.331,78.8384 119.5,82C 121.134,82.4935 122.801,82.6602 124.5,82.5C 124.261,80.5328 124.594,78.6995 125.5,77C 122.572,76.6402 121.906,75.3068 123.5,73C 121.424,71.7562 120.424,69.9229 120.5,67.5C 123.248,67.5983 123.914,66.5983 122.5,64.5 Z"/></g>
<g><path style="opacity:1" fill="#474333" d="M 80.5,89.5 C 84.1788,89.7244 87.8455,90.0578 91.5,90.5C 93.1667,90.5 94.8333,90.5 96.5,90.5C 95.4324,91.4345 94.099,91.7678 92.5,91.5C 92.5,92.5 92.5,93.5 92.5,94.5C 87.8333,93.8333 83.1667,93.1667 78.5,92.5C 78.1667,92.5 77.8333,92.5 77.5,92.5C 76.4331,90.1205 77.4331,89.1205 80.5,89.5 Z"/></g>
<g><path style="opacity:1" fill="#b7ae90" d="M 60.5,88.5 C 67.1667,88.5 73.8333,88.5 80.5,88.5C 80.5,88.8333 80.5,89.1667 80.5,89.5C 77.4331,89.1205 76.4331,90.1205 77.5,92.5C 75.9557,92.7031 74.6223,93.3698 73.5,94.5C 71.7362,91.8228 70.5696,92.1562 70,95.5C 69.6121,94.572 68.9454,93.9054 68,93.5C 66.2341,94.2335 64.4008,94.5668 62.5,94.5C 62.5,93.5 62.5,92.5 62.5,91.5C 59.8127,91.6641 57.146,91.4974 54.5,91C 56.8516,90.7599 58.8516,89.9265 60.5,88.5 Z"/></g>
<g><path style="opacity:1" fill="#565247" d="M 108.5,96.5 C 105.371,98.0438 103.205,97.0438 102,93.5C 101.329,94.2524 100.496,94.5858 99.5,94.5C 100.3,92.2591 101.966,91.2591 104.5,91.5C 104.5,93.1667 104.5,94.8333 104.5,96.5C 105.833,96.5 107.167,96.5 108.5,96.5 Z"/></g>
<g><path style="opacity:1" fill="#4c4b43" d="M 127.5,83.5 C 127.5,84.1667 127.5,84.8333 127.5,85.5C 125.352,85.3894 125.019,86.056 126.5,87.5C 124.984,89.3912 123.65,91.3912 122.5,93.5C 120.865,94.6808 119.198,94.6808 117.5,93.5C 115.698,94.9856 113.698,95.9856 111.5,96.5C 110.5,96.5 109.5,96.5 108.5,96.5C 108.5,95.1667 109.167,94.5 110.5,94.5C 111.972,92.8657 113.638,91.3657 115.5,90C 117.568,89.3131 119.568,89.4798 121.5,90.5C 121.925,86.7209 123.925,84.3875 127.5,83.5 Z"/></g>
<g><path style="opacity:1" fill="#868273" d="M 78.5,92.5 C 83.1667,93.1667 87.8333,93.8333 92.5,94.5C 94.6618,95.4171 96.9952,95.4171 99.5,94.5C 100.496,94.5858 101.329,94.2524 102,93.5C 103.205,97.0438 105.371,98.0438 108.5,96.5C 109.5,96.5 110.5,96.5 111.5,96.5C 112.775,99.549 114.442,102.382 116.5,105C 116.043,105.414 115.709,105.914 115.5,106.5C 118.015,107.2 118.682,108.533 117.5,110.5C 118.5,111.5 119.5,112.5 120.5,113.5C 122.53,113.106 124.863,112.773 127.5,112.5C 127.5,116.167 127.5,119.833 127.5,123.5C 125.958,122.699 124.292,122.366 122.5,122.5C 122.5,121.5 122.5,120.5 122.5,119.5C 120.167,119.5 117.833,119.5 115.5,119.5C 115.5,116.833 115.5,114.167 115.5,111.5C 113.692,111.509 112.025,111.009 110.5,110C 110.957,109.586 111.291,109.086 111.5,108.5C 110.559,108.511 109.892,108.011 109.5,107C 111.003,105.079 111.669,102.912 111.5,100.5C 108.223,100.216 105.057,100.549 102,101.5C 101.405,100.101 101.572,98.7678 102.5,97.5C 98.9317,95.2445 95.4317,95.5779 92,98.5C 91.4261,97.6458 90.7594,96.6458 90,95.5C 88.8615,95.9891 87.6948,96.3225 86.5,96.5C 84.369,95.6862 82.0356,95.1862 79.5,95C 78.7476,94.3292 78.4142,93.4959 78.5,92.5 Z"/></g>
<g><path style="opacity:1" fill="#615e55" d="M 127.5,85.5 C 127.5,94.5 127.5,103.5 127.5,112.5C 124.863,112.773 122.53,113.106 120.5,113.5C 119.5,112.5 118.5,111.5 117.5,110.5C 118.682,108.533 118.015,107.2 115.5,106.5C 115.709,105.914 116.043,105.414 116.5,105C 114.442,102.382 112.775,99.549 111.5,96.5C 113.698,95.9856 115.698,94.9856 117.5,93.5C 119.198,94.6808 120.865,94.6808 122.5,93.5C 123.65,91.3912 124.984,89.3912 126.5,87.5C 125.019,86.056 125.352,85.3894 127.5,85.5 Z"/></g>
<g><path style="opacity:1" fill="#d2cbb4" d="M 60.5,88.5 C 58.8516,89.9265 56.8516,90.7599 54.5,91C 57.146,91.4974 59.8127,91.6641 62.5,91.5C 62.5,92.5 62.5,93.5 62.5,94.5C 61.1667,94.5 59.8333,94.5 58.5,94.5C 60.6467,99.1261 59.6467,102.793 55.5,105.5C 54.6143,106.325 54.281,107.325 54.5,108.5C 58.4494,108.552 61.4494,106.886 63.5,103.5C 65.396,102.534 67.396,102.201 69.5,102.5C 70.3635,104.895 70.3635,107.229 69.5,109.5C 66.2462,111.897 62.5796,112.897 58.5,112.5C 58.5,113.833 58.5,115.167 58.5,116.5C 55.4781,116.804 52.4781,117.304 49.5,118C 47.771,119.789 47.1043,121.956 47.5,124.5C 48.5,124.5 49.5,124.5 50.5,124.5C 50.5,125.5 50.5,126.5 50.5,127.5C 42.1667,127.5 33.8333,127.5 25.5,127.5C 25.6162,120.454 27.6162,114.12 31.5,108.5C 30.7569,106.362 30.0903,104.196 29.5,102C 31.8505,98.4654 33.5172,94.6321 34.5,90.5C 37.3519,91.2583 40.0185,91.2583 42.5,90.5C 48.4213,89.5365 54.4213,88.8699 60.5,88.5 Z"/></g>
<g><path style="opacity:1" fill="#dedcd9" d="M 29.5,75.5 C 30.4916,75.3284 31.1583,75.6618 31.5,76.5C 32.172,77.2674 33.0053,77.9341 34,78.5C 34.8651,82.6404 35.0317,86.6404 34.5,90.5C 33.5172,94.6321 31.8505,98.4654 29.5,102C 30.0903,104.196 30.7569,106.362 31.5,108.5C 27.6162,114.12 25.6162,120.454 25.5,127.5C 23.8333,127.5 22.1667,127.5 20.5,127.5C 22.7448,120.024 24.2448,112.358 25,104.5C 30.4003,96.0763 31.9003,87.0763 29.5,77.5C 29.5,76.8333 29.5,76.1667 29.5,75.5 Z"/></g>
<g><path style="opacity:1" fill="#a9a491" d="M 127.5,123.5 C 127.5,124.833 127.5,126.167 127.5,127.5C 122.5,127.5 117.5,127.5 112.5,127.5C 112.5,126.167 112.5,124.833 112.5,123.5C 111.5,123.5 110.5,123.5 109.5,123.5C 111.386,120.545 112.386,117.211 112.5,113.5C 110.473,113.662 108.473,113.495 106.5,113C 107.308,112.692 107.975,112.192 108.5,111.5C 105.985,110.8 105.318,109.467 106.5,107.5C 105.833,107.167 105.167,106.833 104.5,106.5C 102.373,107.648 100.206,108.648 98,109.5C 98.5013,105.65 99.3346,101.816 100.5,98C 95.6419,97.793 91.6419,99.6263 88.5,103.5C 87.7769,101.836 88.1103,100.169 89.5,98.5C 88.7261,97.2888 87.8928,97.2888 87,98.5C 86.5357,97.9056 86.369,97.2389 86.5,96.5C 87.6948,96.3225 88.8615,95.9891 90,95.5C 90.7594,96.6458 91.4261,97.6458 92,98.5C 95.4317,95.5779 98.9317,95.2445 102.5,97.5C 101.572,98.7678 101.405,100.101 102,101.5C 105.057,100.549 108.223,100.216 111.5,100.5C 111.669,102.912 111.003,105.079 109.5,107C 109.892,108.011 110.559,108.511 111.5,108.5C 111.291,109.086 110.957,109.586 110.5,110C 112.025,111.009 113.692,111.509 115.5,111.5C 115.5,114.167 115.5,116.833 115.5,119.5C 117.833,119.5 120.167,119.5 122.5,119.5C 122.5,120.5 122.5,121.5 122.5,122.5C 124.292,122.366 125.958,122.699 127.5,123.5 Z"/></g>
<g><path style="opacity:1" fill="#c3bda6" d="M 77.5,92.5 C 77.8333,92.5 78.1667,92.5 78.5,92.5C 78.4142,93.4959 78.7476,94.3292 79.5,95C 82.0356,95.1862 84.369,95.6862 86.5,96.5C 86.369,97.2389 86.5357,97.9056 87,98.5C 87.8928,97.2888 88.7261,97.2888 89.5,98.5C 88.1103,100.169 87.7769,101.836 88.5,103.5C 91.6419,99.6263 95.6419,97.793 100.5,98C 99.3346,101.816 98.5013,105.65 98,109.5C 100.206,108.648 102.373,107.648 104.5,106.5C 105.167,106.833 105.833,107.167 106.5,107.5C 105.318,109.467 105.985,110.8 108.5,111.5C 107.975,112.192 107.308,112.692 106.5,113C 108.473,113.495 110.473,113.662 112.5,113.5C 112.386,117.211 111.386,120.545 109.5,123.5C 110.5,123.5 111.5,123.5 112.5,123.5C 112.5,124.833 112.5,126.167 112.5,127.5C 91.8333,127.5 71.1667,127.5 50.5,127.5C 50.5,126.5 50.5,125.5 50.5,124.5C 49.5,124.5 48.5,124.5 47.5,124.5C 47.1043,121.956 47.771,119.789 49.5,118C 52.4781,117.304 55.4781,116.804 58.5,116.5C 58.5,115.167 58.5,113.833 58.5,112.5C 62.5796,112.897 66.2462,111.897 69.5,109.5C 70.3635,107.229 70.3635,104.895 69.5,102.5C 67.396,102.201 65.396,102.534 63.5,103.5C 61.4494,106.886 58.4494,108.552 54.5,108.5C 54.281,107.325 54.6143,106.325 55.5,105.5C 59.6467,102.793 60.6467,99.1261 58.5,94.5C 59.8333,94.5 61.1667,94.5 62.5,94.5C 64.4008,94.5668 66.2341,94.2335 68,93.5C 68.9454,93.9054 69.6121,94.572 70,95.5C 70.5696,92.1562 71.7362,91.8228 73.5,94.5C 74.6223,93.3698 75.9557,92.7031 77.5,92.5 Z"/></g>
</svg>
